<?xml version="1.0" encoding="UTF-8" standalone="no"?><svg xmlns="http://www.w3.org/2000/svg" xmlns:xlink="http://www.w3.org/1999/xlink" contentScriptType="application/ecmascript" contentStyleType="text/css" height="289px" preserveAspectRatio="none" style="width:385px;height:289px;" version="1.1" viewBox="0 0 385 289" width="385px" zoomAndPan="magnify"><defs><filter height="300%" id="f11axz1hg9974" width="300%" x="-1" y="-1"><feGaussianBlur result="blurOut" stdDeviation="2.0"/><feColorMatrix in="blurOut" result="blurOut2" type="matrix" values="0 0 0 0 0 0 0 0 0 0 0 0 0 0 0 0 0 0 .4 0"/><feOffset dx="4.0" dy="4.0" in="blurOut2" result="blurOut3"/><feBlend in="SourceGraphic" in2="blurOut3" mode="normal"/></filter></defs><g><rect fill="#FFFFFF" filter="url(#f11axz1hg9974)" height="75.9316" style="stroke: #000000; stroke-width: 2.0;" width="361" x="13" y="114.1094"/><line style="stroke: #A80036; stroke-width: 1.0;" x1="85" x2="85" y1="38.4883" y2="197.041"/><line style="stroke: #A80036; stroke-width: 1.0; stroke-dasharray: 1.0,4.0;" x1="85" x2="85" y1="197.041" y2="237.9961"/><line style="stroke: #A80036; stroke-width: 1.0;" x1="85" x2="85" y1="237.9961" y2="277.3066"/><line style="stroke: #A80036; stroke-width: 1.0;" x1="314" x2="314" y1="38.4883" y2="197.041"/><line style="stroke: #A80036; stroke-width: 1.0; stroke-dasharray: 1.0,4.0;" x1="314" x2="314" y1="197.041" y2="237.9961"/><line style="stroke: #A80036; stroke-width: 1.0;" x1="314" x2="314" y1="237.9961" y2="277.3066"/><rect fill="#FEFECE" filter="url(#f11axz1hg9974)" height="30.4883" style="stroke: #A80036; stroke-width: 1.5;" width="120" x="23" y="3"/><text fill="#000000" font-family="sans-serif" font-size="14" lengthAdjust="spacingAndGlyphs" textLength="106" x="30" y="23.5352">Data Consumer</text><rect fill="#FEFECE" filter="url(#f11axz1hg9974)" height="30.4883" style="stroke: #A80036; stroke-width: 1.5;" width="96" x="264" y="3"/><text fill="#000000" font-family="sans-serif" font-size="14" lengthAdjust="spacingAndGlyphs" textLength="82" x="271" y="23.5352">Data Source</text><polygon fill="#A80036" points="302,65.7988,312,69.7988,302,73.7988,306,69.7988" style="stroke: #A80036; stroke-width: 1.0;"/><line style="stroke: #A80036; stroke-width: 1.0;" x1="85" x2="308" y1="69.7988" y2="69.7988"/><text fill="#000000" font-family="sans-serif" font-size="13" lengthAdjust="spacingAndGlyphs" textLength="132" x="92" y="65.0566">1a. Request message</text><polygon fill="#A80036" points="96,95.1094,86,99.1094,96,103.1094,92,99.1094" style="stroke: #A80036; stroke-width: 1.0;"/><line style="stroke: #A80036; stroke-width: 1.0; stroke-dasharray: 2.0,2.0;" x1="90" x2="313" y1="99.1094" y2="99.1094"/><text fill="#000000" font-family="sans-serif" font-size="13" lengthAdjust="spacingAndGlyphs" textLength="165" x="102" y="94.3672">1b. Optional ack response</text><path d="M13,114.1094 L144,114.1094 L144,121.1094 L134,131.1094 L13,131.1094 L13,114.1094 " fill="#EEEEEE" style="stroke: #000000; stroke-width: 1.0;"/><rect fill="none" height="75.9316" style="stroke: #000000; stroke-width: 2.0;" width="361" x="13" y="114.1094"/><text fill="#000000" font-family="sans-serif" font-size="13" font-weight="bold" lengthAdjust="spacingAndGlyphs" textLength="86" x="28" y="127.6777">Status Check</text><polygon fill="#A80036" points="302,148.7305,312,152.7305,302,156.7305,306,152.7305" style="stroke: #A80036; stroke-width: 1.0;"/><line style="stroke: #A80036; stroke-width: 1.0;" x1="85" x2="308" y1="152.7305" y2="152.7305"/><text fill="#000000" font-family="sans-serif" font-size="13" lengthAdjust="spacingAndGlyphs" textLength="172" x="92" y="147.9883">2a. Status request message</text><polygon fill="#A80036" points="96,178.041,86,182.041,96,186.041,92,182.041" style="stroke: #A80036; stroke-width: 1.0;"/><line style="stroke: #A80036; stroke-width: 1.0; stroke-dasharray: 2.0,2.0;" x1="90" x2="313" y1="182.041" y2="182.041"/><text fill="#000000" font-family="sans-serif" font-size="13" lengthAdjust="spacingAndGlyphs" textLength="124" x="102" y="177.2988">2b. Status response</text><text fill="#000000" font-family="sans-serif" font-size="11" lengthAdjust="spacingAndGlyphs" textLength="102" x="148.5" y="221.6758">At some later point</text><polygon fill="#A80036" points="96,255.3066,86,259.3066,96,263.3066,92,259.3066" style="stroke: #A80036; stroke-width: 1.0;"/><line style="stroke: #A80036; stroke-width: 1.0;" x1="90" x2="313" y1="259.3066" y2="259.3066"/><text fill="#000000" font-family="sans-serif" font-size="13" lengthAdjust="spacingAndGlyphs" textLength="205" x="102" y="254.5645">3. Response message (with data)</text><!--
@startuml
hide footbox
participant "Data Consumer" as Consumer
participant "Data Source" as Source

Consumer -> Source: 1a. Request message
Consumer <- - Source: 1b. Optional ack response

group Status Check
Consumer -> Source: 2a. Status request message
Consumer <- - Source: 2b. Status response
end

...At some later point...

Consumer <- Source: 3. Response message (with data)
@enduml

PlantUML version 1.2018.14(Fri Dec 21 12:33:16 AST 2018)
(GPL source distribution)
Java Runtime: Java(TM) SE Runtime Environment
JVM: Java HotSpot(TM) 64-Bit Server VM
Java Version: 9.0.1+11
Operating System: Mac OS X
OS Version: 10.16
Default Encoding: UTF-8
Language: en
Country: US
--></g></svg>