<?xml version="1.0" encoding="UTF-8" standalone="no"?><svg xmlns="http://www.w3.org/2000/svg" xmlns:xlink="http://www.w3.org/1999/xlink" contentScriptType="application/ecmascript" contentStyleType="text/css" height="355px" preserveAspectRatio="none" style="width:539px;height:355px;" version="1.1" viewBox="0 0 539 355" width="539px" zoomAndPan="magnify"><defs><filter height="300%" id="f1t2s0cwshk4za" width="300%" x="-1" y="-1"><feGaussianBlur result="blurOut" stdDeviation="2.0"/><feColorMatrix in="blurOut" result="blurOut2" type="matrix" values="0 0 0 0 0 0 0 0 0 0 0 0 0 0 0 0 0 0 .4 0"/><feOffset dx="4.0" dy="4.0" in="blurOut2" result="blurOut3"/><feBlend in="SourceGraphic" in2="blurOut3" mode="normal"/></filter></defs><g><rect fill="#FFFFFF" filter="url(#f1t2s0cwshk4za)" height="208.7578" style="stroke: #000000; stroke-width: 2.0;" width="515.5" x="13" y="117.3125"/><line style="stroke: #A80036; stroke-width: 1.0;" x1="81" x2="81" y1="39.6094" y2="135.6641"/><line style="stroke: #A80036; stroke-width: 1.0; stroke-dasharray: 1.0,4.0;" x1="81" x2="81" y1="135.6641" y2="163.6641"/><line style="stroke: #A80036; stroke-width: 1.0;" x1="81" x2="81" y1="163.6641" y2="237.3672"/><line style="stroke: #A80036; stroke-width: 1.0; stroke-dasharray: 1.0,4.0;" x1="81" x2="81" y1="237.3672" y2="265.3672"/><line style="stroke: #A80036; stroke-width: 1.0;" x1="81" x2="81" y1="265.3672" y2="343.0703"/><line style="stroke: #A80036; stroke-width: 1.0;" x1="368" x2="368" y1="39.6094" y2="135.6641"/><line style="stroke: #A80036; stroke-width: 1.0; stroke-dasharray: 1.0,4.0;" x1="368" x2="368" y1="135.6641" y2="163.6641"/><line style="stroke: #A80036; stroke-width: 1.0;" x1="368" x2="368" y1="163.6641" y2="237.3672"/><line style="stroke: #A80036; stroke-width: 1.0; stroke-dasharray: 1.0,4.0;" x1="368" x2="368" y1="237.3672" y2="265.3672"/><line style="stroke: #A80036; stroke-width: 1.0;" x1="368" x2="368" y1="265.3672" y2="343.0703"/><rect fill="#FEFECE" filter="url(#f1t2s0cwshk4za)" height="31.6094" style="stroke: #A80036; stroke-width: 1.5;" width="113" x="23" y="3"/><text fill="#000000" font-family="sans-serif" font-size="14" lengthAdjust="spacingAndGlyphs" textLength="99" x="30" y="24.5332">Data Consumer</text><rect fill="#FEFECE" filter="url(#f1t2s0cwshk4za)" height="31.6094" style="stroke: #A80036; stroke-width: 1.5;" width="93" x="320" y="3"/><text fill="#000000" font-family="sans-serif" font-size="14" lengthAdjust="spacingAndGlyphs" textLength="79" x="327" y="24.5332">Data Source</text><polygon fill="#A80036" points="356.5,67.9609,366.5,71.9609,356.5,75.9609,360.5,71.9609" style="stroke: #A80036; stroke-width: 1.0;"/><line style="stroke: #A80036; stroke-width: 1.0;" x1="81.5" x2="362.5" y1="71.9609" y2="71.9609"/><text fill="#000000" font-family="sans-serif" font-size="13" lengthAdjust="spacingAndGlyphs" textLength="133" x="88.5" y="67.1045">1a. POST Subscription</text><polygon fill="#A80036" points="92.5,98.3125,82.5,102.3125,92.5,106.3125,88.5,102.3125" style="stroke: #A80036; stroke-width: 1.0;"/><line style="stroke: #A80036; stroke-width: 1.0; stroke-dasharray: 2.0,2.0;" x1="86.5" x2="367.5" y1="102.3125" y2="102.3125"/><text fill="#000000" font-family="sans-serif" font-size="13" lengthAdjust="spacingAndGlyphs" textLength="128" x="98.5" y="97.4561">1b. HTTP 201 Created</text><path d="M13,117.3125 L86,117.3125 L86,125.3125 L76,135.3125 L13,135.3125 L13,117.3125 " fill="#EEEEEE" style="stroke: #000000; stroke-width: 1.0;"/><rect fill="none" height="208.7578" style="stroke: #000000; stroke-width: 2.0;" width="515.5" x="13" y="117.3125"/><text fill="#000000" font-family="sans-serif" font-size="13" font-weight="bold" lengthAdjust="spacingAndGlyphs" textLength="28" x="28" y="131.8076">loop</text><line style="stroke: #A80036; stroke-width: 1.0; stroke-dasharray: 2.0,2.0;" x1="368.5" x2="410.5" y1="186.0156" y2="186.0156"/><line style="stroke: #A80036; stroke-width: 1.0; stroke-dasharray: 2.0,2.0;" x1="410.5" x2="410.5" y1="186.0156" y2="199.0156"/><line style="stroke: #A80036; stroke-width: 1.0; stroke-dasharray: 2.0,2.0;" x1="369.5" x2="410.5" y1="199.0156" y2="199.0156"/><polygon fill="#A80036" points="379.5,195.0156,369.5,199.0156,379.5,203.0156,375.5,199.0156" style="stroke: #A80036; stroke-width: 1.0;"/><text fill="#000000" font-family="sans-serif" font-size="13" lengthAdjust="spacingAndGlyphs" textLength="141" x="375.5" y="181.1592">2. Relevant event occurs</text><polygon fill="#A80036" points="92.5,225.3672,82.5,229.3672,92.5,233.3672,88.5,229.3672" style="stroke: #A80036; stroke-width: 1.0;"/><line style="stroke: #A80036; stroke-width: 1.0;" x1="86.5" x2="367.5" y1="229.3672" y2="229.3672"/><text fill="#000000" font-family="sans-serif" font-size="13" lengthAdjust="spacingAndGlyphs" textLength="226" x="98.5" y="224.5107">3. Notification of relevant event (no PHI)</text><polygon fill="#A80036" points="356.5,283.7188,366.5,287.7188,356.5,291.7188,360.5,287.7188" style="stroke: #A80036; stroke-width: 1.0;"/><line style="stroke: #A80036; stroke-width: 1.0;" x1="81.5" x2="362.5" y1="287.7188" y2="287.7188"/><text fill="#000000" font-family="sans-serif" font-size="13" lengthAdjust="spacingAndGlyphs" textLength="178" x="88.5" y="282.8623">4a. Query for recent event data</text><polygon fill="#A80036" points="92.5,314.0703,82.5,318.0703,92.5,322.0703,88.5,318.0703" style="stroke: #A80036; stroke-width: 1.0;"/><line style="stroke: #A80036; stroke-width: 1.0; stroke-dasharray: 2.0,2.0;" x1="86.5" x2="367.5" y1="318.0703" y2="318.0703"/><text fill="#000000" font-family="sans-serif" font-size="13" lengthAdjust="spacingAndGlyphs" textLength="263" x="98.5" y="313.2139">4b search-set Bundle containing relevant data</text><!--MD5=[176d2d163716ceda1dd38723327aed7f]
@startuml
hide footbox
participant "Data Consumer" as Consumer
participant "Data Source" as Source
Consumer -> Source: 1a. POST Subscription
Consumer <- - Source: 1b. HTTP 201 Created
loop
  ...
  Source - -> Source: 2. Relevant event occurs
  Consumer <- Source: 3. Notification of relevant event (no PHI)
  ...
  Consumer -> Source: 4a. Query for recent event data
  Consumer <- - Source: 4b search-set Bundle containing relevant data
end
@enduml

PlantUML version 1.2020.02(Sun Mar 01 03:22:07 MST 2020)
(GPL source distribution)
Java Runtime: Java(TM) SE Runtime Environment
JVM: Java HotSpot(TM) 64-Bit Server VM
Java Version: 1.8.0_251-b08
Operating System: Windows 10
Default Encoding: Cp1252
Language: en
Country: CA
--></g></svg>