<?xml version="1.0" encoding="UTF-8" standalone="no"?><svg xmlns="http://www.w3.org/2000/svg" xmlns:xlink="http://www.w3.org/1999/xlink" contentScriptType="application/ecmascript" contentStyleType="text/css" height="266px" preserveAspectRatio="none" style="width:524px;height:266px;" version="1.1" viewBox="0 0 524 266" width="524px" zoomAndPan="magnify"><defs><filter height="300%" id="flzupl9rpy95h" width="300%" x="-1" y="-1"><feGaussianBlur result="blurOut" stdDeviation="2.0"/><feColorMatrix in="blurOut" result="blurOut2" type="matrix" values="0 0 0 0 0 0 0 0 0 0 0 0 0 0 0 0 0 0 .4 0"/><feOffset dx="4.0" dy="4.0" in="blurOut2" result="blurOut3"/><feBlend in="SourceGraphic" in2="blurOut3" mode="normal"/></filter></defs><g><rect fill="#FFFFFF" filter="url(#flzupl9rpy95h)" height="120.0547" style="stroke: #000000; stroke-width: 2.0;" width="500.5" x="13" y="117.3125"/><line style="stroke: #A80036; stroke-width: 1.0;" x1="81" x2="81" y1="39.6094" y2="135.6641"/><line style="stroke: #A80036; stroke-width: 1.0; stroke-dasharray: 1.0,4.0;" x1="81" x2="81" y1="135.6641" y2="163.6641"/><line style="stroke: #A80036; stroke-width: 1.0;" x1="81" x2="81" y1="163.6641" y2="254.3672"/><line style="stroke: #A80036; stroke-width: 1.0;" x1="353" x2="353" y1="39.6094" y2="135.6641"/><line style="stroke: #A80036; stroke-width: 1.0; stroke-dasharray: 1.0,4.0;" x1="353" x2="353" y1="135.6641" y2="163.6641"/><line style="stroke: #A80036; stroke-width: 1.0;" x1="353" x2="353" y1="163.6641" y2="254.3672"/><rect fill="#FEFECE" filter="url(#flzupl9rpy95h)" height="31.6094" style="stroke: #A80036; stroke-width: 1.5;" width="113" x="23" y="3"/><text fill="#000000" font-family="sans-serif" font-size="14" lengthAdjust="spacingAndGlyphs" textLength="99" x="30" y="24.5332">Data Consumer</text><rect fill="#FEFECE" filter="url(#flzupl9rpy95h)" height="31.6094" style="stroke: #A80036; stroke-width: 1.5;" width="93" x="305" y="3"/><text fill="#000000" font-family="sans-serif" font-size="14" lengthAdjust="spacingAndGlyphs" textLength="79" x="312" y="24.5332">Data Source</text><polygon fill="#A80036" points="341.5,67.9609,351.5,71.9609,341.5,75.9609,345.5,71.9609" style="stroke: #A80036; stroke-width: 1.0;"/><line style="stroke: #A80036; stroke-width: 1.0;" x1="81.5" x2="347.5" y1="71.9609" y2="71.9609"/><text fill="#000000" font-family="sans-serif" font-size="13" lengthAdjust="spacingAndGlyphs" textLength="133" x="88.5" y="67.1045">1a. POST Subscription</text><polygon fill="#A80036" points="92.5,98.3125,82.5,102.3125,92.5,106.3125,88.5,102.3125" style="stroke: #A80036; stroke-width: 1.0;"/><line style="stroke: #A80036; stroke-width: 1.0; stroke-dasharray: 2.0,2.0;" x1="86.5" x2="352.5" y1="102.3125" y2="102.3125"/><text fill="#000000" font-family="sans-serif" font-size="13" lengthAdjust="spacingAndGlyphs" textLength="128" x="98.5" y="97.4561">1b. HTTP 201 Created</text><path d="M13,117.3125 L86,117.3125 L86,125.3125 L76,135.3125 L13,135.3125 L13,117.3125 " fill="#EEEEEE" style="stroke: #000000; stroke-width: 1.0;"/><rect fill="none" height="120.0547" style="stroke: #000000; stroke-width: 2.0;" width="500.5" x="13" y="117.3125"/><text fill="#000000" font-family="sans-serif" font-size="13" font-weight="bold" lengthAdjust="spacingAndGlyphs" textLength="28" x="28" y="131.8076">loop</text><line style="stroke: #A80036; stroke-width: 1.0; stroke-dasharray: 2.0,2.0;" x1="353.5" x2="395.5" y1="186.0156" y2="186.0156"/><line style="stroke: #A80036; stroke-width: 1.0; stroke-dasharray: 2.0,2.0;" x1="395.5" x2="395.5" y1="186.0156" y2="199.0156"/><line style="stroke: #A80036; stroke-width: 1.0; stroke-dasharray: 2.0,2.0;" x1="354.5" x2="395.5" y1="199.0156" y2="199.0156"/><polygon fill="#A80036" points="364.5,195.0156,354.5,199.0156,364.5,203.0156,360.5,199.0156" style="stroke: #A80036; stroke-width: 1.0;"/><text fill="#000000" font-family="sans-serif" font-size="13" lengthAdjust="spacingAndGlyphs" textLength="141" x="360.5" y="181.1592">2. Relevant event occurs</text><polygon fill="#A80036" points="92.5,225.3672,82.5,229.3672,92.5,233.3672,88.5,229.3672" style="stroke: #A80036; stroke-width: 1.0;"/><line style="stroke: #A80036; stroke-width: 1.0;" x1="86.5" x2="352.5" y1="229.3672" y2="229.3672"/><text fill="#000000" font-family="sans-serif" font-size="13" lengthAdjust="spacingAndGlyphs" textLength="248" x="98.5" y="224.5107">3. Notification containing relevant data sent</text><!--MD5=[2a87914bccddee402bd889b06c902bb3]
@startuml
hide footbox
participant "Data Consumer" as Consumer
participant "Data Source" as Source
Consumer -> Source: 1a. POST Subscription
Consumer <- - Source: 1b. HTTP 201 Created
loop
  ...
  Source - -> Source: 2. Relevant event occurs
  Consumer <- Source: 3. Notification containing relevant data sent
end
@enduml

PlantUML version 1.2020.02(Sun Mar 01 03:22:07 MST 2020)
(GPL source distribution)
Java Runtime: Java(TM) SE Runtime Environment
JVM: Java HotSpot(TM) 64-Bit Server VM
Java Version: 1.8.0_251-b08
Operating System: Windows 10
Default Encoding: Cp1252
Language: en
Country: CA
--></g></svg>